# xmcd
#
# Track frame offsets:
# 151
# 22022
# 41547
# 53969
# 76589
# 88721
# 101026
# 114474
# 136202
# 159591
# 185551
# 206216
# 230578
# 251171
# 277951
# 302034
# 322206
#
# Disc length: 4484 seconds
#
#
# Revision: 0
# Processed by: cddbd v1.5.2PL0 Copyright (c) Steve Scherf et al.
# Submitted via: FreeRIP 2.951 
#
DISCID=f0118211
DTITLE=Paul Kossoff - The Complete Sessions 1968-75
DYEAR=2000
DGENRE=Rock
TTITLE0=Income Tax
TTITLE1=Roll On
TTITLE2=A Racehorse Called Mae
TTITLE3=My Homes In Hell
TTITLE4=I Haven't Done No One No Harm
TTITLE5=I Haven't Done No One No Harm [Alt]
TTITLE6=Swamp Man
TTITLE7=A Fool For You
TTITLE8=Come Here Sweet Man
TTITLE9=My Say Blues
TTITLE10=The Piano Player's Gone
TTITLE11=Big Thirst
TTITLE12=Last Day Of Dawn
TTITLE13=Don't Be A Hero
TTITLE14=How Much Can A Man Really Take
TTITLE15=Oh How We Danced
TTITLE16=Jam
EXTD=Best ever compilation of Paul Kossoff's session work outside Free, BSC and KKTR
EXTT0=
EXTT1=
EXTT2=
EXTT3=
EXTT4=
EXTT5=
EXTT6=
EXTT7=
EXTT8=
EXTT9=
EXTT10=
EXTT11=
EXTT12=
EXTT13=
EXTT14=
EXTT15=
EXTT16=
PLAYORDER=
